<?xml version="1.0" standalone="no"?>
<svg viewBox="0 0 200 200" xmlns="http://www.w3.org/2000/svg">
  <path fill="#FFFFFF" d="M32.5,-52.3C40.4,-51.7,43.8,-39.5,48.5,-28.9C53.2,-18.2,59.2,-9.1,58.9,-0.2C58.6,8.8,52.1,17.6,45.4,24.8C38.8,32,31.9,37.7,24.3,37.5C16.7,37.2,8.4,31,0.1,30.8C-8.2,30.6,-16.3,36.5,-19.8,34.4C-23.4,32.3,-22.3,22.3,-29,15.2C-35.8,8.1,-50.4,4.1,-55.9,-3.2C-61.4,-10.4,-57.7,-20.8,-49.8,-25.9C-41.9,-30.9,-29.7,-30.6,-20.7,-30.5C-11.7,-30.5,-5.8,-30.7,3.2,-36.3C12.3,-41.9,24.6,-52.9,32.5,-52.3Z" transform="translate(100 100)" />
</svg>
